<svg width="41" height="40" viewBox="0 0 41 40" fill="none" xmlns="http://www.w3.org/2000/svg">
<path d="M36.8259 0H4.82593C2.62593 0 0.845928 1.8 0.845928 4L0.825928 36C0.825928 38.2 2.62593 40 4.82593 40H36.8259C39.0259 40 40.8259 38.2 40.8259 36V4C40.8259 1.8 39.0259 0 36.8259 0ZM12.8259 34H6.82593V16H12.8259V34ZM9.82593 12.62C7.82593 12.62 6.20593 11 6.20593 9C6.20593 7 7.82593 5.38 9.82593 5.38C11.8259 5.38 13.4459 7 13.4459 9C13.4459 11 11.8259 12.62 9.82593 12.62ZM34.8259 34H28.8259V23.4C28.8259 21.74 27.4859 20.4 25.8259 20.4C24.1659 20.4 22.8259 21.74 22.8259 23.4V34H16.8259V16H22.8259V18.4C23.8659 16.72 26.0059 15.6 27.8259 15.6C31.6859 15.6 34.8259 18.74 34.8259 22.6V34Z" fill="black"/>
</svg>
