<svg width="41" height="40" viewBox="0 0 41 40" fill="none" xmlns="http://www.w3.org/2000/svg">
<path fill-rule="evenodd" clip-rule="evenodd" d="M40.8259 0H0.825928V40H40.8259V0ZM15.2758 27.5C19.3895 27.5 22.7245 24.1422 22.7245 20.0001C22.7245 15.8581 19.3897 12.5 15.2758 12.5C11.1618 12.5 7.82676 15.8588 7.82676 20.0001C7.82676 24.1414 11.162 27.5 15.2758 27.5ZM30.8956 20C30.8956 23.8989 29.2281 27.0608 27.1711 27.0608C25.1141 27.0608 23.4466 23.8989 23.4466 20C23.4466 16.1012 25.1139 12.9392 27.1709 12.9392C29.2279 12.9392 30.8954 16.1002 30.8954 20H30.8956ZM32.9281 26.3254C33.6516 26.3254 34.238 23.4925 34.238 20.0001C34.238 16.5066 33.6514 13.6747 32.9281 13.6747C32.2048 13.6747 31.6184 16.5069 31.6184 20.0001C31.6184 23.4933 32.2045 26.3254 32.9281 26.3254Z" fill="black"/>
</svg>
