<svg width="41" height="30" viewBox="0 0 41 30" fill="none" xmlns="http://www.w3.org/2000/svg">
<path fill-rule="evenodd" clip-rule="evenodd" d="M5.71947 0.954497C2.84772 1.09677 0.540903 3.34538 0.354534 6.21461C0.175978 8.96354 0 12.346 0 15C0 17.654 0.175978 21.0365 0.354534 23.7854C0.540903 26.6546 2.84772 28.9032 5.71948 29.0455C9.87796 29.2515 15.8216 29.5 20.3 29.5C24.7784 29.5 30.722 29.2515 34.8805 29.0455C37.7523 28.9032 40.0591 26.6546 40.2455 23.7854C40.424 21.0365 40.6 17.654 40.6 15C40.6 12.346 40.424 8.96354 40.2455 6.21461C40.0591 3.34538 37.7523 1.09677 34.8805 0.954497C30.722 0.748475 24.7784 0.5 20.3 0.5C15.8216 0.5 9.87796 0.748475 5.71947 0.954497ZM27.55 15L15.95 20.8V9.2L27.55 15Z" fill="black"/>
</svg>
